<?xml version="1.0" encoding="UTF-8"?>
<svg id="Layer_2" data-name="Layer 2" xmlns="http://www.w3.org/2000/svg" viewBox="0 0 469.74 125.96">
  <defs>
    <style>
      .cls-1 {
        fill: #fbb040;
      }

      .cls-2, .cls-3 {
        fill: #231f20;
      }

      .cls-3 {
        stroke: #fbb040;
        stroke-miterlimit: 10;
        stroke-width: 3px;
      }
    </style>
  </defs>
  <g id="Layer_1-2" data-name="Layer 1">
    <g>
      <g>
        <path class="cls-2" d="M10.77,68.2c-1.88,0-3.64-.73-4.96-2.06-1.33-1.33-2.06-3.09-2.06-4.96v-3.52c0-3.05,2.48-5.53,5.53-5.53h2.14V18.23h-2.71c-2.74,0-4.96-2.23-4.96-4.96v-3.47c0-3.74,3.04-6.78,6.78-6.78H31.67c3.6,0,6.53,2.93,6.53,6.53v3.82c0,2.48-2.02,4.51-4.51,4.51h-2.28v8.18l9.47-9.11c-1.25-.89-2.08-2.35-2.08-3.99v-4.72c-.01-1.39,.53-2.7,1.51-3.69,.98-.99,2.29-1.53,3.69-1.53h21.97c2.98,0,5.41,2.42,5.41,5.41v4.63c0,2.65-2.16,4.81-4.81,4.81h-2.67l-12.64,12.64,14.18,22.36h2.21c2.79,0,5.06,2.27,5.06,5.06v3.82c0,3.56-2.9,6.46-6.46,6.46h-21.76c-3.03,0-5.49-2.46-5.49-5.49v-4.45c0-2.14,1.26-3.98,3.08-4.83l-6.43-11.8-4.08,4.08v6.79h.24c3.47,0,6.29,2.82,6.29,6.29v2.38c0,3.88-3.15,7.03-7.03,7.03H10.77s0,0,0,0Z"/>
        <path class="cls-1" d="M65.97,4.51c2.16,0,3.91,1.75,3.91,3.91v4.63c0,1.83-1.48,3.31-3.31,3.31h-3.29l-13.93,13.93,15.27,24.07h3.03c1.97,0,3.56,1.59,3.56,3.56v3.82c0,2.74-2.22,4.96-4.96,4.96h-21.76c-2.2,0-3.99-1.78-3.99-3.99v-4.45c0-2.12,1.72-3.83,3.83-3.83l-8.33-15.28-5.94,5.94v8.91h1.74c2.65,0,4.79,2.15,4.79,4.79v2.38c0,3.05-2.47,5.53-5.53,5.53H10.77s0,0,0,0c-3.05,0-5.52-2.47-5.52-5.52v-3.52c0-2.23,1.8-4.03,4.03-4.03h3.64V16.73h-4.21c-1.91,0-3.46-1.55-3.46-3.46v-3.47c0-2.92,2.37-5.28,5.28-5.28H31.67c2.78,0,5.03,2.25,5.03,5.03v3.82c0,1.66-1.35,3.01-3.01,3.01h-3.78v13.2l13.76-13.23c-1.86-.01-3.37-1.53-3.37-3.39v-4.72c-.01-2.05,1.65-3.71,3.7-3.71h21.97m0-3h-21.97c-1.79,0-3.48,.7-4.75,1.97-.42,.42-.77,.88-1.06,1.38-1.46-2.03-3.84-3.35-6.52-3.35H10.53C5.97,1.51,2.25,5.23,2.25,9.79v3.47c0,3.56,2.9,6.46,6.46,6.46h1.21v30.9h-.65c-3.88,0-7.03,3.16-7.03,7.03v3.52c0,4.7,3.82,8.52,8.52,8.52H31.07c2.99,0,5.63-1.55,7.15-3.89,1.14,2.3,3.52,3.89,6.26,3.89h21.76c4.39,0,7.96-3.57,7.96-7.96v-3.82c0-3.62-2.94-6.56-6.56-6.56h-1.38l-13.1-20.65,11.35-11.35h2.05c3.48,0,6.31-2.83,6.31-6.31v-4.63c0-3.81-3.1-6.91-6.91-6.91h0ZM32.91,19.36h.78c2.03,0,3.83-1.01,4.92-2.56,.03,.05,.07,.09,.11,.14l-5.8,5.58v-3.15h0Zm.15,26.97l2.23-2.23,4.8,8.8c-.64,.51-1.19,1.14-1.62,1.84-1.16-1.91-3.12-3.28-5.41-3.65v-4.77h0Z"/>
      </g>
      <g>
        <path class="cls-2" d="M112.5,69.45c-1.84,0-3.53-.33-4.91-.95-1.64-.74-2.35-2.03-2.81-2.88-.1-.18-.22-.4-.31-.54-.15,.11-.44,.4-.66,.62-.48,.47-1.07,1.06-1.92,1.63-2.16,1.46-10.03,1.79-12.62,1.79s-4.29-.18-5.23-.52c-3.71-1.36-8.24-4.8-9.85-10.37-1.57-5.47,.39-10,1.3-11.69,1.37-2.57,3.44-4.7,6.15-6.31,1.25-.75,2.29-1.15,3.32-1.42-1.77-.36-3.82-1.16-5.46-2.91-2.43-2.58-2.73-6-2.2-8.33,.7-2.99,4.58-6.16,6.99-7.37,4.14-2.06,8.36-2.35,12.3-2.35h2.18c7.26,0,17.99,4.2,17.99,13.18,0,1.84-.01,3.39-.02,5.15-.02,2.27-.04,4.87-.04,8.86,0,1.21,0,2.32-.01,3.35-.01,2.49-.03,5.05,.11,6.18,.02,0,.03,0,.05,0,.34-.06,.76-.12,1.24-.12,.72,0,1.38,.15,2.01,.47,1.02,.51,1.86,1.32,2.51,2.41,1.7,2.8,.38,6.66,.07,7.25-1.89,3.61-6.66,4.89-10.16,4.89h0Zm-15.4-21.59c-3.17,0-5.74,2.57-5.74,5.73v.55c0,1.27,1.03,2.3,2.3,2.3h1.55c2.45,0,4.44-1.99,4.44-4.44v-4.14h-2.55Zm19.78,7.18h0Zm-20.2-25.12c-.72,0-1.06,.16-1.12,.22-.05,.12-.02,.65,0,.99,.06,.85,.13,2.01-.38,3.2-.43,1.01-1.09,1.82-1.81,2.45,.02,0,.04-.01,.06-.02,3.66-1.25,5.75-2.01,6.07-3.26,.22-.86,.28-2.66-1.07-3.27-.35-.16-1.05-.33-1.78-.33Z"/>
        <path class="cls-1" d="M96.58,19.34c.77,0,1.5,0,2.18,0,6.76,0,16.49,3.76,16.49,11.67,0,4.21-.06,6.94-.06,14.01,0,6.27-.17,10.2,.45,10.82,.2,.2,.44,.26,.72,.26,.47,0,1.05-.19,1.71-.19,.42,0,.87,.07,1.35,.31,1.1,.55,1.67,1.46,1.89,1.83,1.31,2.16,.21,5.44,.03,5.78-1.43,2.72-5.29,4.1-8.84,4.1-1.57,0-3.09-.27-4.29-.82-2.26-1.02-2.04-3.44-3.52-3.59-.05,0-.1,0-.15,0-1.15,0-1.71,1.34-3.5,2.56-1.38,.94-7.32,1.53-11.78,1.53-2.12,0-3.91-.13-4.71-.43-3.44-1.26-7.48-4.36-8.93-9.38-1.51-5.25,.65-9.58,1.18-10.56,1.83-3.44,4.61-5.15,5.6-5.74,3.56-2.12,5.12-1.13,11.54-3.32,4.08-1.39,6.51-2.26,7.04-4.3,.46-1.79,.07-4.12-1.9-5.01-.59-.27-1.51-.46-2.4-.46s-1.67,.18-2.15,.64c-1.06,1.01,.07,2.86-.71,4.69-1.14,2.67-4.37,3.59-4.82,3.71-.07,.02-.6,.1-1.38,.1-1.77,0-4.87-.39-7.04-2.7-1.92-2.04-2.32-4.82-1.83-6.97,.53-2.28,3.8-5.16,6.2-6.36,4.02-2,8.23-2.19,11.63-2.19m-2.92,38.6h1.55c3.28,0,5.94-2.66,5.94-5.94v-5.64h-4.05c-4,0-7.24,3.24-7.24,7.23v.55c0,2.1,1.7,3.8,3.8,3.8m2.92-41.6h0c-4.12,0-8.55,.3-12.97,2.5-2.56,1.28-6.93,4.68-7.78,8.37-.79,3.47,.19,7.18,2.57,9.71,.78,.83,1.64,1.48,2.53,1.98-.02,.01-.04,.02-.06,.03-2.95,1.76-5.21,4.08-6.71,6.91-.99,1.84-3.14,6.8-1.41,12.8,.56,1.95,3,8.52,10.78,11.37,.41,.15,1.67,.61,5.74,.61,.43,0,10.47-.02,13.46-2.05,.56-.38,1.03-.77,1.41-1.12,.57,.84,1.43,1.77,2.84,2.41,1.57,.71,3.48,1.08,5.53,1.08,3.92,0,9.29-1.49,11.5-5.7,.39-.74,1.97-5.28-.12-8.73-.78-1.32-1.83-2.32-3.11-2.96-.81-.4-1.67-.61-2.57-.63-.03-1.22-.02-2.9-.01-4.54,0-1.03,.01-2.15,.01-3.36,0-3.98,.02-6.58,.04-8.85,.01-1.76,.02-3.32,.02-5.16,0-4.61-2.55-8.66-7.19-11.39-3.49-2.06-8.09-3.28-12.3-3.28-.32,0-.65,0-1,0-.38,0-.78,0-1.18,0h0Zm.34,17.54c.22-.92,.21-1.76,.17-2.43,.37,.04,.65,.13,.76,.17,.31,.14,.37,.94,.22,1.53-.13,.21-.56,.46-1.15,.73h0Zm-3.26,21.06c-.44,0-.8-.36-.8-.8v-.55c0-2.33,1.9-4.23,4.24-4.23h1.05v2.64c0,1.62-1.32,2.94-2.94,2.94h-1.55Z"/>
      </g>
      <g>
        <path class="cls-2" d="M129.3,68.29c-2.94,0-5.34-2.4-5.34-5.34v-2.59c0-2.94,2.4-5.34,5.34-5.34h1.62V31.94h-1.08c-3.66,0-6.64-2.97-6.64-6.63,0-1.77,.69-3.44,1.95-4.7,1.25-1.25,2.92-1.94,4.69-1.94h1.08v-3.01c0-7.81,6.35-14.16,14.16-14.16h7.52c6.33,0,11.48,5.15,11.48,11.48v.47c0,3.72-3.03,6.75-6.75,6.75h-.84c1.47,1.22,2.4,3.06,2.4,5.11,0,1.76-.69,3.42-1.93,4.69-1.27,1.26-2.94,1.95-4.71,1.95h-3.96v23.08h4.77c2.94,0,5.34,2.4,5.34,5.34v2.59c0,2.94-2.4,5.34-5.34,5.34h-23.76Zm22.33-49.62c-1.47-1.21-2.43-3.02-2.48-5.06-.06,.05-.12,.1-.17,.16-.44,.45-.69,1.04-.69,1.68v3.22h3.34Z"/>
        <path class="cls-1" d="M152.6,3c5.51,0,9.98,4.47,9.98,9.98v.47c0,2.9-2.35,5.25-5.25,5.25h-1.42c-2.9,0-5.26-2.35-5.26-5.25v-1.87c-1.06,0-2.03,.43-2.73,1.13-.7,.7-1.13,1.67-1.13,2.74v4.72h5.46c2.84,0,5.14,2.3,5.14,5.14,0,1.42-.58,2.7-1.5,3.63-.94,.93-2.22,1.5-3.64,1.5h-5.46v26.08h6.27c2.12,0,3.84,1.72,3.84,3.84v2.59c0,2.12-1.72,3.84-3.84,3.84h-23.76c-2.12,0-3.84-1.72-3.84-3.84v-2.59c0-2.12,1.72-3.84,3.84-3.84h3.12V30.44h-2.58c-2.84,0-5.14-2.3-5.14-5.13,0-1.42,.57-2.7,1.51-3.64,.92-.92,2.21-1.5,3.63-1.5h2.58v-4.51c0-6.99,5.67-12.66,12.66-12.66h7.52m0-3h-7.52c-8.63,0-15.66,7.03-15.66,15.66v1.52c-2.02,.1-3.9,.93-5.33,2.37-1.54,1.54-2.39,3.59-2.39,5.76,0,4.34,3.43,7.9,7.72,8.12v20.09h-.12c-3.77,0-6.84,3.07-6.84,6.84v2.59c0,3.77,3.07,6.84,6.84,6.84h23.76c3.77,0,6.84-3.07,6.84-6.84v-2.59c0-3.77-3.07-6.84-6.84-6.84h-3.27v-20.08h2.46c2.16,0,4.21-.84,5.75-2.37,1.55-1.57,2.39-3.6,2.39-5.76,0-1.4-.36-2.72-.98-3.87,3.55-.92,6.17-4.15,6.17-7.99v-.47c0-7.16-5.82-12.98-12.98-12.98h0Z"/>
      </g>
      <g>
        <path class="cls-2" d="M165.73,68.29c-2.94,0-5.34-2.4-5.34-5.34v-2.59c0-2.94,2.4-5.34,5.34-5.34h1.62V31.94h-1.08c-3.66,0-6.64-2.97-6.64-6.63,0-1.77,.69-3.44,1.95-4.7,1.25-1.25,2.92-1.94,4.69-1.94h1.08v-3.01c0-7.81,6.35-14.16,14.16-14.16h7.52c6.33,0,11.48,5.15,11.48,11.48v.47c0,3.72-3.03,6.75-6.75,6.75h-.84c1.47,1.22,2.4,3.06,2.4,5.11,0,1.76-.69,3.42-1.93,4.69-1.27,1.26-2.94,1.95-4.71,1.95h-3.96v23.08h4.77c2.94,0,5.34,2.4,5.34,5.34v2.59c0,2.94-2.4,5.34-5.34,5.34h-23.76Zm22.33-49.62c-1.47-1.21-2.43-3.02-2.48-5.06-.06,.05-.12,.1-.17,.16-.44,.45-.69,1.04-.69,1.68v3.22h3.34Z"/>
        <path class="cls-1" d="M189.03,3c5.51,0,9.98,4.47,9.98,9.98v.47c0,2.9-2.35,5.25-5.25,5.25h-1.42c-2.9,0-5.26-2.35-5.26-5.25v-1.87c-1.06,0-2.03,.43-2.73,1.13-.7,.7-1.13,1.67-1.13,2.74v4.72h5.46c2.84,0,5.14,2.3,5.14,5.14,0,1.42-.58,2.7-1.5,3.63-.94,.93-2.22,1.5-3.64,1.5h-5.46v26.08h6.27c2.12,0,3.84,1.72,3.84,3.84v2.59c0,2.12-1.72,3.84-3.84,3.84h-23.76c-2.12,0-3.84-1.72-3.84-3.84v-2.59c0-2.12,1.72-3.84,3.84-3.84h3.12V30.44h-2.58c-2.84,0-5.14-2.3-5.14-5.13,0-1.42,.57-2.7,1.51-3.64,.92-.92,2.21-1.5,3.63-1.5h2.58v-4.51c0-6.99,5.67-12.66,12.66-12.66h7.52m0-3h-7.52c-8.63,0-15.66,7.03-15.66,15.66v1.52c-2.02,.1-3.9,.93-5.33,2.37-1.54,1.54-2.39,3.59-2.39,5.76,0,4.34,3.43,7.9,7.72,8.12v20.09h-.12c-3.77,0-6.84,3.07-6.84,6.84v2.59c0,3.77,3.07,6.84,6.84,6.84h23.76c3.77,0,6.84-3.07,6.84-6.84v-2.59c0-3.77-3.07-6.84-6.84-6.84h-3.27v-20.08h2.46c2.16,0,4.21-.84,5.75-2.37,1.55-1.57,2.39-3.6,2.39-5.76,0-1.4-.36-2.72-.98-3.87,3.55-.92,6.17-4.15,6.17-7.99v-.47c0-7.16-5.82-12.98-12.98-12.98h0Z"/>
      </g>
      <g>
        <path class="cls-2" d="M216.85,69.93c-2.78,0-5.57-.42-8.05-1.23-2.22-.73-8.09-2.65-12.25-8.6-1.46-2.07-2.31-4.54-3-6.53-.59-1.72-.83-5.38-.83-6.96v-5.34c0-12.84,10.44-23.29,23.28-23.29,6.22,0,12.06,2.42,16.46,6.82,4.4,4.41,6.82,10.26,6.82,16.47,0,3.49-2.63,6.38-6,6.79,.89,.52,3.37,2.22,4.18,5.32,1.21,4.64-2.18,8.52-3.45,9.98-3.63,4.17-8.35,5.25-11.17,5.9-1.95,.45-3.96,.67-5.98,.67Zm-6.52-21.81c.04,.71,.12,1.45,.24,2.43,.31,2.36,1.01,3.4,1.4,3.81,.84,.89,1.83,1.94,4.5,1.94,2.21,0,3.08-.68,3.78-1.77,.45-.71,.76-1.4,1.12-2.2,.16-.36,.33-.74,.52-1.14,.65-1.36,1.66-2.46,2.82-3.08h-14.38Zm10.38-12v-.24c0-2.6-2.12-4.72-4.72-4.72s-4.72,2.12-4.72,4.72v.24h9.44Z"/>
        <path class="cls-1" d="M215.99,19.49c6.02,0,11.46,2.44,15.4,6.38,3.94,3.95,6.38,9.4,6.38,15.41,0,2.95-2.39,5.34-5.33,5.34h-23.66c.01,1.36,.08,2.36,.3,4.12,.3,2.32,.99,3.81,1.8,4.66,.85,.9,2.22,2.41,5.59,2.41,2.48,0,3.96-.76,5.04-2.47,.73-1.15,1.11-2.2,1.72-3.49,.47-.99,1.32-2.08,2.52-2.57,.68-.27,2.17-.45,3.59-.45,1.22,0,2.4,.13,2.98,.44,.37,.2,2.9,1.62,3.65,4.5,1.01,3.86-1.95,7.26-3.13,8.61-3.31,3.8-7.66,4.8-10.37,5.42-2.03,.46-3.94,.63-5.65,.63-3.88,0-6.73-.88-7.59-1.15-2.32-.76-7.68-2.6-11.48-8.03-1.32-1.87-2.1-4.1-2.81-6.16-.5-1.46-.75-4.93-.75-6.47v-5.34c0-12.03,9.75-21.79,21.78-21.79m-6.22,18.13h12.44v-1.74c0-3.43-2.78-6.22-6.22-6.22s-6.22,2.79-6.22,6.22v1.74m6.22-21.13c-13.66,0-24.78,11.12-24.78,24.79v5.34c0,1.5,.23,5.45,.91,7.44,.72,2.08,1.61,4.67,3.2,6.92,4.44,6.35,10.66,8.38,13,9.15,2.65,.85,5.59,1.3,8.53,1.3,2.13,0,4.26-.24,6.32-.71,2.8-.64,8.01-1.83,11.96-6.37,1.28-1.46,5.19-5.93,3.77-11.34-.5-1.91-1.5-3.35-2.51-4.39,2.61-1.41,4.39-4.17,4.39-7.34,0-6.61-2.58-12.84-7.26-17.53-4.68-4.68-10.91-7.26-17.52-7.26h0Zm-2.96,18.13c.49-1.15,1.63-1.96,2.96-1.96s2.47,.81,2.96,1.96h-5.93Zm-1.06,15h9.08c-.22,.35-.39,.67-.51,.94-.2,.41-.37,.8-.54,1.17-.35,.78-.62,1.39-1.01,2.01-.41,.65-.81,1.08-2.51,1.08-2.02,0-2.68-.69-3.37-1.43l-.04-.04c-.35-.37-.79-1.34-1.01-2.98-.03-.26-.06-.51-.09-.74h0Z"/>
      </g>
      <g>
        <path class="cls-2" d="M307.31,69.93c-2.78,0-5.57-.42-8.05-1.23-2.22-.73-8.09-2.65-12.25-8.6-1.46-2.07-2.31-4.54-3-6.53-.59-1.72-.83-5.38-.83-6.96v-5.34c0-12.84,10.44-23.29,23.28-23.29,6.22,0,12.06,2.42,16.46,6.82,4.4,4.41,6.82,10.26,6.82,16.47,0,3.49-2.63,6.38-6,6.79,.89,.52,3.37,2.22,4.17,5.32,1.21,4.64-2.18,8.52-3.45,9.98-3.63,4.17-8.35,5.25-11.16,5.9-1.95,.45-3.96,.67-5.98,.67Zm-6.52-21.81c.04,.71,.12,1.45,.24,2.43,.31,2.36,1.01,3.4,1.4,3.81,.84,.89,1.83,1.94,4.5,1.94,2.21,0,3.08-.68,3.78-1.77,.45-.71,.76-1.4,1.12-2.2,.16-.36,.33-.74,.52-1.13,.65-1.36,1.66-2.46,2.82-3.08h-14.38Zm10.38-12v-.24c0-2.6-2.12-4.72-4.72-4.72s-4.72,2.12-4.72,4.72v.24h9.44Z"/>
        <path class="cls-1" d="M306.46,19.49c6.02,0,11.46,2.44,15.4,6.38,3.94,3.95,6.38,9.4,6.38,15.41,0,2.95-2.39,5.34-5.33,5.34h-23.66c.01,1.36,.08,2.36,.3,4.12,.3,2.32,.99,3.81,1.8,4.66,.85,.9,2.22,2.41,5.59,2.41,2.48,0,3.96-.76,5.04-2.47,.73-1.15,1.11-2.2,1.72-3.49,.47-.99,1.32-2.08,2.52-2.57,.68-.27,2.17-.45,3.59-.45,1.22,0,2.4,.13,2.98,.44,.37,.2,2.9,1.62,3.65,4.5,1.01,3.86-1.95,7.26-3.13,8.61-3.31,3.8-7.66,4.8-10.37,5.42-2.03,.46-3.94,.63-5.65,.63-3.88,0-6.73-.88-7.59-1.15-2.32-.76-7.68-2.6-11.48-8.03-1.32-1.87-2.1-4.1-2.81-6.16-.5-1.46-.75-4.93-.75-6.47v-5.34c0-12.03,9.75-21.79,21.78-21.79m-6.22,18.13h12.44v-1.74c0-3.43-2.78-6.22-6.22-6.22s-6.22,2.79-6.22,6.22v1.74m6.22-21.13c-13.66,0-24.78,11.12-24.78,24.79v5.34c0,1.5,.23,5.45,.91,7.44,.72,2.08,1.61,4.67,3.2,6.92,4.44,6.35,10.66,8.38,13,9.15,2.65,.85,5.59,1.3,8.53,1.3,2.13,0,4.26-.24,6.32-.71,2.8-.64,8.01-1.83,11.96-6.37,1.28-1.46,5.19-5.93,3.77-11.34-.5-1.91-1.5-3.35-2.51-4.39,2.61-1.41,4.39-4.17,4.39-7.34,0-6.61-2.58-12.84-7.26-17.53-4.68-4.68-10.91-7.26-17.52-7.26h0Zm-2.96,18.13c.49-1.15,1.63-1.96,2.96-1.96s2.47,.81,2.96,1.96h-5.93Zm-1.06,15h9.08c-.22,.35-.39,.67-.51,.94-.2,.41-.37,.8-.54,1.17-.35,.78-.62,1.39-1.01,2.01-.41,.65-.81,1.08-2.51,1.08-2.02,0-2.68-.69-3.37-1.43l-.04-.04c-.35-.37-.79-1.34-1.01-2.98-.03-.26-.06-.51-.09-.74h0Z"/>
      </g>
      <g>
        <path class="cls-2" d="M408,69.61c-2.78,0-5.57-.42-8.05-1.23-2.21-.73-8.08-2.65-12.25-8.6-1.46-2.07-2.31-4.54-3-6.53-.59-1.72-.83-5.38-.83-6.96v-5.34c0-12.84,10.44-23.29,23.28-23.29,6.22,0,12.06,2.42,16.46,6.82,4.4,4.41,6.82,10.26,6.82,16.47,0,3.49-2.63,6.38-6,6.79,.89,.52,3.37,2.21,4.17,5.32,1.21,4.64-2.18,8.51-3.45,9.97-3.64,4.17-8.35,5.25-11.17,5.9-1.95,.45-3.96,.67-5.98,.67Zm-6.52-21.81c.04,.71,.12,1.45,.24,2.43,.3,2.36,1.01,3.4,1.4,3.81,.84,.89,1.83,1.94,4.5,1.94,2.21,0,3.08-.68,3.78-1.77,.45-.71,.76-1.4,1.12-2.2,.16-.36,.33-.74,.52-1.13,.65-1.36,1.66-2.46,2.82-3.08h-14.38Zm10.38-12v-.24c0-2.6-2.12-4.72-4.72-4.72s-4.72,2.12-4.72,4.72v.24h9.44Z"/>
        <path class="cls-1" d="M407.14,19.17c6.02,0,11.46,2.44,15.4,6.38,3.94,3.95,6.38,9.4,6.38,15.41,0,2.95-2.39,5.34-5.33,5.34h-23.66c.01,1.36,.08,2.36,.3,4.12,.3,2.32,.99,3.81,1.8,4.66,.85,.9,2.22,2.41,5.59,2.41,2.48,0,3.96-.76,5.04-2.47,.73-1.15,1.11-2.2,1.72-3.49,.47-.99,1.32-2.08,2.52-2.57,.68-.27,2.17-.45,3.59-.45,1.22,0,2.4,.13,2.98,.44,.37,.2,2.9,1.62,3.65,4.5,1.01,3.86-1.95,7.26-3.13,8.61-3.31,3.8-7.66,4.8-10.37,5.42-2.03,.46-3.94,.63-5.65,.63-3.88,0-6.73-.88-7.59-1.15-2.32-.76-7.68-2.6-11.48-8.03-1.32-1.87-2.1-4.1-2.81-6.16-.5-1.46-.75-4.93-.75-6.47v-5.34c0-12.03,9.75-21.79,21.78-21.79m-6.22,18.13h12.44v-1.74c0-3.43-2.78-6.22-6.22-6.22s-6.22,2.79-6.22,6.22v1.74m6.22-21.13c-13.66,0-24.78,11.12-24.78,24.79v5.34c0,1.5,.23,5.45,.91,7.44,.72,2.08,1.61,4.67,3.2,6.92,4.44,6.35,10.66,8.38,13,9.15,2.65,.85,5.59,1.3,8.53,1.3,2.13,0,4.26-.24,6.32-.71,2.8-.64,8.01-1.83,11.96-6.37,1.28-1.46,5.19-5.93,3.77-11.34-.5-1.91-1.5-3.35-2.51-4.39,2.61-1.41,4.39-4.17,4.39-7.34,0-6.61-2.58-12.84-7.26-17.53-4.68-4.68-10.91-7.26-17.52-7.26h0Zm-2.96,18.13c.49-1.15,1.63-1.96,2.96-1.96s2.47,.81,2.96,1.96h-5.93Zm-1.06,15h9.08c-.22,.35-.39,.67-.51,.94-.2,.41-.37,.8-.54,1.17-.35,.78-.62,1.39-1.01,2.01-.41,.65-.81,1.08-2.51,1.08-2.02,0-2.68-.69-3.37-1.43l-.04-.04c-.35-.37-.79-1.34-1.01-2.98-.03-.26-.06-.51-.09-.74h0Z"/>
      </g>
      <g>
        <path class="cls-2" d="M450.27,69.61c-7.92,0-14.36-6.44-14.36-14.36v-23.06h-3.33c-3.23,0-5.86-2.63-5.86-5.86v-1.55c0-3.23,2.63-5.86,5.86-5.86h3.33v-6.83c0-3.36,2.73-6.09,6.09-6.09h5.75c3.36,0,6.09,2.73,6.09,6.09v6.83h7.59c3.09,0,5.61,2.52,5.61,5.61v2.05c0,3.09-2.52,5.61-5.61,5.61h-7.59v22.69c0,.25,.2,.44,.45,.44s.45-.2,.45-.44v-6.25c0-3.4,2.77-6.17,6.17-6.17h1.16c3.4,0,6.17,2.77,6.17,6.17v7.78c0,7.27-5.92,13.19-13.19,13.19h-4.78Z"/>
        <path class="cls-1" d="M447.75,7.5c2.54,0,4.59,2.06,4.59,4.59v7.41c0,.51,.41,.92,.92,.92h8.17c2.27,0,4.11,1.84,4.11,4.11v2.05c0,2.27-1.84,4.11-4.11,4.11h-8.17c-.51,0-.92,.41-.92,.92v23.28c0,1.07,.87,1.94,1.95,1.94s1.95-.87,1.95-1.94v-6.25c0-2.58,2.09-4.67,4.67-4.67h1.16c2.58,0,4.67,2.09,4.67,4.67v7.78c0,6.46-5.24,11.69-11.69,11.69h-4.78c-7.1,0-12.86-5.76-12.86-12.86V31.61c0-.51-.41-.92-.92-.92h-3.91c-2.41,0-4.36-1.95-4.36-4.36v-1.55c0-2.41,1.95-4.36,4.36-4.36h3.91c.51,0,.92-.41,.92-.92v-7.41c0-2.53,2.05-4.59,4.59-4.59h5.75m0-3h-5.75c-4.19,0-7.59,3.4-7.59,7.59v5.33h-1.83c-4.06,0-7.36,3.3-7.36,7.36v1.55c0,4.06,3.3,7.36,7.36,7.36h1.83v21.56c0,8.74,7.11,15.86,15.86,15.86h4.78c8.1,0,14.69-6.59,14.69-14.69v-7.78c0-4.23-3.44-7.67-7.67-7.67h-1.16c-2.19,0-4.16,.92-5.56,2.39v-9.66h6.09c3.92,0,7.11-3.19,7.11-7.11v-2.05c0-3.92-3.19-7.11-7.11-7.11h-6.09v-5.33c0-4.19-3.4-7.59-7.59-7.59h0Z"/>
      </g>
      <g>
        <path class="cls-2" d="M331.98,85.68c-3.08,0-5.59-2.5-5.59-5.58v-2.13c0-3.08,2.51-5.58,5.59-5.58h3.23V32.22h-1.12c-2.92,0-5.3-2.38-5.3-5.3v-2.68c0-2.93,2.38-5.31,5.31-5.31h13.3c1.39,0,2.57,.94,2.92,2.23,1.75-1.72,4.15-2.79,6.79-2.79h5.28c10.39,0,18.85,8.46,18.85,18.85v12.98c0,10.88-8.85,19.73-19.73,19.73h-1.74c-2.75,0-5.25-1.11-7.07-2.91v5.37h5.31c3.08,0,5.58,2.5,5.58,5.58v2.13c0,3.08-2.5,5.58-5.58,5.58h-26.03Zm26.12-53.46c-2.98,0-5.4,2.42-5.4,5.4v11.71c0,2.98,2.42,5.41,5.4,5.41s5.41-2.43,5.41-5.41v-11.71c0-2.98-2.42-5.4-5.4-5.4h-.01Z"/>
        <path class="cls-1" d="M362.39,19.87c9.58,0,17.35,7.77,17.35,17.35v12.98c0,10.07-8.16,18.23-18.23,18.23h-1.74c-4.73,0-8.57-3.84-8.57-8.57v14.03h6.81c2.25,0,4.08,1.83,4.08,4.08v2.13c0,2.26-1.83,4.08-4.08,4.08h-26.03c-2.26,0-4.09-1.82-4.09-4.08v-2.13c0-2.25,1.83-4.08,4.09-4.08h4.73V30.72h-2.62c-2.1,0-3.8-1.7-3.8-3.8v-2.68c0-2.1,1.71-3.81,3.81-3.81h13.3c.84,0,1.53,.68,1.53,1.53v6.09c0-4.52,3.66-8.18,8.18-8.18h5.28m-4.29,36.37h.01c3.81,0,6.9-3.09,6.9-6.91v-11.71c0-3.81-3.09-6.9-6.9-6.9h-.01c-3.81,0-6.9,3.09-6.9,6.9v11.71c0,3.82,3.09,6.91,6.9,6.91m4.29-39.37h-5.28c-2.37,0-4.58,.74-6.39,2.01-.83-.89-2.01-1.45-3.32-1.45h-13.3c-3.76,0-6.81,3.05-6.81,6.81v2.68c0,3.62,2.85,6.59,6.42,6.79v37.18h-1.73c-3.91,0-7.09,3.18-7.09,7.08v2.13c0,3.9,3.18,7.08,7.09,7.08h26.03c3.9,0,7.08-3.18,7.08-7.08v-2.13c0-2.94-1.81-5.47-4.37-6.54h.79c11.71,0,21.23-9.52,21.23-21.23v-12.98c0-11.22-9.13-20.35-20.35-20.35h0Zm-4.29,36.37c-2.15,0-3.9-1.75-3.9-3.91v-11.71c0-2.15,1.75-3.9,3.9-3.9s3.91,1.75,3.91,3.9v11.71c0,2.16-1.75,3.91-3.9,3.91h-.01Zm-3.9,17.65v-.89c.65,.36,1.35,.66,2.07,.89h-2.07Z"/>
      </g>
      <g>
        <path class="cls-2" d="M246.32,68.38c-3.33,0-6.15-2.29-6.72-5.44-.38-2.13,.3-4.33,1.83-5.87,1.27-1.26,2.93-1.94,4.69-1.94h1.02v-22.71h-3.08c-2.33,0-4.22-1.89-4.22-4.22v-3.97c0-2.91,2.36-5.27,5.27-5.27h13.8c1.34,0,2.47,.91,2.81,2.14,1.87-1.45,4.5-2.79,7.48-2.79h2.03c6.4,0,11.61,5.21,11.61,11.61v3.05c0,4.59-3.47,8.41-7.89,8.71-.2,.01-.39,.02-.59,.02-2.27,0-4.4-.89-5.99-2.49-1.29-1.28-2.11-2.91-2.39-4.68-.71,1.84-1.35,4.26-1.35,5.88v14.73h1.59c1.88,0,3.72,.78,5.03,2.15,1.25,1.31,1.9,2.99,1.83,4.74-.07,1.66-.75,3.22-1.93,4.41-1.26,1.26-2.92,1.94-4.69,1.94h-20.16Z"/>
        <path class="cls-1" d="M271.23,19.81c5.58,0,10.11,4.53,10.11,10.11v3.05c0,3.71-2.79,6.96-6.49,7.21-.16,.01-.33,.02-.49,.02-1.93,0-3.67-.78-4.93-2.05-1.27-1.26-2.05-3-2.05-4.93v-2.5c0-.12-.1-.23-.21-.23-.01,0-.03,0-.04,0-2.23,.5-4,7.64-4,9.9v15.37c0,.48,.39,.86,.86,.86h2.23c2.93,0,5.48,2.4,5.36,5.33-.05,1.33-.62,2.53-1.5,3.42-.93,.93-2.21,1.5-3.62,1.5h-20.16c-2.51,0-4.8-1.73-5.24-4.2-.32-1.77,.3-3.42,1.42-4.55,.93-.92,2.21-1.5,3.62-1.5h1.66c.48,0,.86-.39,.86-.86V30.92h-4.58c-1.5,0-2.72-1.22-2.72-2.72v-3.97c0-2.08,1.69-3.77,3.77-3.77h13.8c.78,0,1.42,.63,1.42,1.42v2.2c0,.11,.09,.19,.18,.19,.05,0,.1-.02,.14-.07,1.27-1.58,4.62-4.39,8.56-4.39h2.03m0-3h-2.03c-2.66,0-5.07,.95-6.99,2.14-.81-.91-1.99-1.49-3.31-1.49h-13.8c-3.73,0-6.77,3.04-6.77,6.77v3.97c0,3.15,2.57,5.72,5.72,5.72h1.58v19.72c-1.97,.12-3.82,.94-5.25,2.35-1.89,1.91-2.73,4.6-2.26,7.21,.69,3.87,4.14,6.67,8.19,6.67h20.16c2.17,0,4.21-.84,5.74-2.38,1.45-1.47,2.29-3.38,2.37-5.41,.09-2.17-.71-4.24-2.25-5.84-1.59-1.66-3.82-2.61-6.11-2.61h-.09v-13.23c0-.35,.05-.81,.14-1.33,.31,.43,.66,.83,1.04,1.21,1.86,1.88,4.37,2.92,7.04,2.92,.23,0,.46,0,.69-.02,5.21-.35,9.29-4.83,9.29-10.21v-3.05c0-7.23-5.88-13.11-13.11-13.11h0Z"/>
      </g>
    </g>
  </g>
  <g id="Stat_1" data-name="Stat 1">
    <g>
      <path class="cls-3" d="M10.82,105.22c1.07,0,2.08,.11,3.04,.33,.96,.22,1.83,.58,2.62,1.08,.79,.5,1.48,1.16,2.09,1.98,.61,.82,1.11,1.83,1.5,3.03,.72-.13,1.08-.51,1.08-1.15,0-.5-.18-1.13-.54-1.9-.36-.76-.94-1.5-1.73-2.22-.8-.72-1.84-1.34-3.14-1.85-1.3-.51-2.87-.77-4.73-.77-1.05,0-1.95,.09-2.7,.26-.75,.17-1.38,.36-1.88,.56-.76-.39-1.45-.9-2.06-1.52-.61-.62-1.13-1.32-1.55-2.11-.43-.79-.75-1.64-.98-2.55-.23-.92-.34-1.85-.34-2.81,0-2.68,.58-4.98,1.73-6.9,1.16-1.92,2.67-3.48,4.53-4.69,1.87-1.21,3.96-2.1,6.3-2.67,2.33-.57,4.68-.85,7.03-.85,2.12,0,4.03,.13,5.76,.39,1.72,.26,3.26,.6,4.61,1.03,1.35,.42,2.54,.91,3.55,1.44,1.01,.53,1.87,1.07,2.57,1.62,.24,.7,.43,1.46,.56,2.29,.13,.83,.2,1.69,.2,2.58,0,.59-.05,1.21-.15,1.85-.1,.64-.25,1.27-.44,1.88-.2,.61-.45,1.19-.75,1.73-.31,.55-.67,1.01-1.08,1.41-.35-.24-.86-.51-1.54-.8-.68-.29-1.45-.57-2.31-.82-.86-.25-1.79-.46-2.8-.64-1-.17-2.01-.26-3.01-.26-1.37,0-2.33,.1-2.86,.29-.53,.2-.8,.5-.8,.92,0,.22,.03,.4,.1,.56,.44-.11,.92-.19,1.44-.23,.52-.04,1.02-.07,1.5-.07,1.88,0,3.72,.23,5.53,.7,1.81,.47,3.43,1.24,4.86,2.32,1.43,1.08,2.58,2.5,3.45,4.27,.87,1.77,1.31,3.94,1.31,6.51,0,2.03-.44,3.95-1.31,5.76-.87,1.81-2.15,3.4-3.84,4.78-1.69,1.37-3.78,2.46-6.28,3.27-2.5,.81-5.38,1.21-8.65,1.21-1.68,0-3.25-.06-4.71-.18-1.46-.12-2.86-.32-4.19-.59-1.33-.27-2.61-.63-3.83-1.08-1.22-.45-2.43-.99-3.63-1.62-.72-1.05-1.31-2.16-1.77-3.34s-.69-2.52-.69-4.02c0-1.18,.22-2.28,.67-3.3,.45-1.02,1.06-1.91,1.85-2.67,.79-.75,1.72-1.35,2.81-1.78,1.09-.44,2.29-.65,3.6-.65Z"/>
      <path class="cls-3" d="M69.4,121.06c-.89,.79-2.17,1.49-3.81,2.13-1.65,.63-3.63,.95-5.94,.95-1.22,0-2.4-.13-3.53-.39-1.13-.26-2.13-.66-2.99-1.19-.86-.53-1.55-1.21-2.06-2.03-.51-.82-.77-1.78-.77-2.9v-21.07h-7.62c-.83-1.2-1.43-2.39-1.8-3.58-.37-1.19-.56-2.45-.56-3.78,0-1,.09-1.91,.26-2.73,.17-.82,.4-1.55,.69-2.19,.28-.64,.61-1.21,.96-1.7,.36-.49,.73-.9,1.1-1.23h33.83c.61,.94,1.13,2.1,1.55,3.5,.42,1.4,.64,2.8,.64,4.22,0,1.33-.16,2.47-.47,3.42-.32,.95-.75,1.72-1.31,2.32-.56,.6-1.22,1.04-1.98,1.33-.76,.28-1.6,.43-2.52,.43h-9.59c-.07,.17-.1,.34-.1,.49,0,.2,.04,.35,.13,.47,.09,.12,.27,.22,.54,.31,.27,.09,.65,.15,1.14,.18,.49,.03,1.14,.05,1.95,.05h2.26v23Z"/>
      <path class="cls-3" d="M83.77,84.29c.85-.54,1.81-1.04,2.88-1.49,1.07-.45,2.2-.82,3.39-1.13,1.19-.31,2.42-.54,3.7-.7,1.28-.16,2.56-.25,3.84-.25,1.7,0,3.39,.15,5.05,.46,1.67,.31,3.19,.79,4.56,1.44s2.55,1.5,3.53,2.54c.98,1.04,1.65,2.27,2,3.71l7.46,30.85c-1,1.29-2.41,2.34-4.22,3.17-1.81,.83-4.1,1.24-6.87,1.24-1.22,0-2.37-.11-3.44-.33-1.07-.22-2.01-.54-2.83-.96-.82-.43-1.49-.96-2.03-1.6-.54-.64-.88-1.4-1.03-2.27l-.72-3.99c.68-.02,1.35-.1,2.01-.25,.66-.14,1.26-.32,1.8-.52,.53-.21,.97-.44,1.31-.7,.34-.26,.51-.52,.51-.79,0-.35-.14-.63-.43-.85-.39,.28-.85,.54-1.37,.77-.52,.23-1.07,.42-1.65,.57-.58,.15-1.16,.27-1.73,.34-.58,.08-1.12,.11-1.62,.11-.94,0-1.77-.06-2.5-.18-.73-.12-1.37-.27-1.91-.44-.55-.17-1.01-.36-1.41-.57-.39-.21-.72-.41-.98-.6-.09,.11-.16,.23-.23,.38-.07,.14-.1,.3-.1,.47,0,.33,.17,.63,.51,.9,.34,.27,.79,.51,1.36,.72,.57,.21,1.22,.38,1.95,.51,.73,.13,1.5,.22,2.31,.26,.13,1.53,.28,2.74,.44,3.65,.16,.91,.32,1.48,.47,1.72-.2,.37-.58,.77-1.16,1.19-.58,.42-1.3,.82-2.16,1.19-.86,.37-1.84,.68-2.94,.92-1.1,.24-2.27,.36-3.52,.36-1.55,0-3.01-.17-4.38-.52s-2.57-.83-3.6-1.46c-1.03-.62-1.84-1.37-2.45-2.26-.61-.88-.92-1.87-.92-2.96,0-.24,.01-.48,.03-.74,.02-.25,.07-.51,.13-.77l6.97-31.14Zm15.38,16.85c-.24-1.31-.43-2.36-.57-3.14-.14-.79-.28-1.38-.43-1.78-.14-.4-.29-.67-.46-.79-.16-.12-.37-.18-.6-.18-.15,0-.29,.02-.43,.07-.13,.04-.25,.09-.36,.13l1.24,6.61c.09,.09,.21,.15,.38,.2,.16,.04,.31,.07,.44,.07,.2,0,.38-.03,.56-.08,.17-.05,.31-.1,.39-.15l-.16-.95Z"/>
      <path class="cls-3" d="M144.93,121.06c-.89,.79-2.17,1.49-3.81,2.13-1.65,.63-3.63,.95-5.94,.95-1.22,0-2.4-.13-3.53-.39-1.13-.26-2.13-.66-2.99-1.19-.86-.53-1.55-1.21-2.06-2.03-.51-.82-.77-1.78-.77-2.9v-21.07h-7.62c-.83-1.2-1.43-2.39-1.8-3.58-.37-1.19-.56-2.45-.56-3.78,0-1,.09-1.91,.26-2.73,.17-.82,.4-1.55,.69-2.19,.28-.64,.61-1.21,.96-1.7,.36-.49,.73-.9,1.1-1.23h33.83c.61,.94,1.13,2.1,1.55,3.5,.42,1.4,.64,2.8,.64,4.22,0,1.33-.16,2.47-.47,3.42-.32,.95-.75,1.72-1.31,2.32-.56,.6-1.22,1.04-1.98,1.33-.76,.28-1.6,.43-2.52,.43h-9.59c-.07,.17-.1,.34-.1,.49,0,.2,.04,.35,.13,.47,.09,.12,.27,.22,.54,.31,.27,.09,.65,.15,1.14,.18,.49,.03,1.14,.05,1.95,.05h2.26v23Z"/>
      <path class="cls-3" d="M171.98,123.18c-1.65,.63-3.63,.95-5.94,.95-1.22,0-2.4-.13-3.53-.39-1.13-.26-2.13-.66-2.99-1.19-.86-.53-1.55-1.21-2.06-2.03-.51-.82-.77-1.78-.77-2.9v-33.79c.89-.79,2.16-1.49,3.81-2.13,1.65-.63,3.63-.95,5.94-.95,1.22,0,2.4,.13,3.53,.39,1.13,.26,2.13,.66,2.99,1.19,.86,.53,1.55,1.21,2.06,2.03,.51,.82,.77,1.78,.77,2.9v33.79c-.89,.79-2.17,1.49-3.81,2.13Z"/>
      <path class="cls-3" d="M187.42,105.22c1.07,0,2.08,.11,3.04,.33,.96,.22,1.83,.58,2.62,1.08,.79,.5,1.48,1.16,2.09,1.98,.61,.82,1.11,1.83,1.5,3.03,.72-.13,1.08-.51,1.08-1.15,0-.5-.18-1.13-.54-1.9-.36-.76-.94-1.5-1.73-2.22-.8-.72-1.84-1.34-3.14-1.85-1.3-.51-2.87-.77-4.73-.77-1.05,0-1.95,.09-2.7,.26-.75,.17-1.38,.36-1.88,.56-.76-.39-1.45-.9-2.06-1.52-.61-.62-1.13-1.32-1.55-2.11-.43-.79-.75-1.64-.98-2.55-.23-.92-.34-1.85-.34-2.81,0-2.68,.58-4.98,1.73-6.9,1.16-1.92,2.67-3.48,4.53-4.69,1.87-1.21,3.96-2.1,6.3-2.67,2.33-.57,4.68-.85,7.03-.85,2.12,0,4.03,.13,5.76,.39,1.72,.26,3.26,.6,4.61,1.03,1.35,.42,2.54,.91,3.55,1.44,1.01,.53,1.87,1.07,2.57,1.62,.24,.7,.43,1.46,.56,2.29,.13,.83,.2,1.69,.2,2.58,0,.59-.05,1.21-.15,1.85-.1,.64-.25,1.27-.44,1.88-.2,.61-.45,1.19-.75,1.73-.31,.55-.67,1.01-1.08,1.41-.35-.24-.86-.51-1.54-.8-.68-.29-1.45-.57-2.31-.82-.86-.25-1.79-.46-2.8-.64-1-.17-2.01-.26-3.01-.26-1.37,0-2.33,.1-2.86,.29-.53,.2-.8,.5-.8,.92,0,.22,.03,.4,.1,.56,.44-.11,.92-.19,1.44-.23,.52-.04,1.02-.07,1.5-.07,1.88,0,3.72,.23,5.53,.7,1.81,.47,3.43,1.24,4.86,2.32,1.43,1.08,2.58,2.5,3.45,4.27,.87,1.77,1.31,3.94,1.31,6.51,0,2.03-.44,3.95-1.31,5.76-.87,1.81-2.15,3.4-3.84,4.78-1.69,1.37-3.78,2.46-6.28,3.27-2.5,.81-5.38,1.21-8.65,1.21-1.68,0-3.25-.06-4.71-.18-1.46-.12-2.86-.32-4.19-.59-1.33-.27-2.61-.63-3.83-1.08-1.22-.45-2.43-.99-3.63-1.62-.72-1.05-1.31-2.16-1.77-3.34s-.69-2.52-.69-4.02c0-1.18,.22-2.28,.67-3.3,.45-1.02,1.06-1.91,1.85-2.67,.79-.75,1.72-1.35,2.81-1.78,1.09-.44,2.29-.65,3.6-.65Z"/>
      <path class="cls-3" d="M245.99,121.06c-.89,.79-2.17,1.49-3.81,2.13-1.65,.63-3.63,.95-5.94,.95-1.22,0-2.4-.13-3.53-.39-1.13-.26-2.13-.66-2.99-1.19-.86-.53-1.55-1.21-2.06-2.03-.51-.82-.77-1.78-.77-2.9v-21.07h-7.62c-.83-1.2-1.43-2.39-1.8-3.58-.37-1.19-.56-2.45-.56-3.78,0-1,.09-1.91,.26-2.73,.17-.82,.4-1.55,.69-2.19,.28-.64,.61-1.21,.96-1.7,.36-.49,.73-.9,1.1-1.23h33.83c.61,.94,1.13,2.1,1.55,3.5,.43,1.4,.64,2.8,.64,4.22,0,1.33-.16,2.47-.47,3.42-.32,.95-.75,1.72-1.31,2.32-.56,.6-1.22,1.04-1.98,1.33-.77,.28-1.6,.43-2.52,.43h-9.59c-.07,.17-.1,.34-.1,.49,0,.2,.04,.35,.13,.47,.09,.12,.27,.22,.54,.31,.27,.09,.65,.15,1.14,.18,.49,.03,1.14,.05,1.95,.05h2.26v23Z"/>
      <path class="cls-3" d="M273.04,123.18c-1.65,.63-3.63,.95-5.94,.95-1.22,0-2.4-.13-3.53-.39-1.13-.26-2.13-.66-2.99-1.19-.86-.53-1.55-1.21-2.06-2.03-.51-.82-.77-1.78-.77-2.9v-33.79c.89-.79,2.16-1.49,3.81-2.13,1.65-.63,3.62-.95,5.94-.95,1.22,0,2.4,.13,3.53,.39,1.13,.26,2.13,.66,2.99,1.19,.86,.53,1.55,1.21,2.06,2.03,.51,.82,.77,1.78,.77,2.9v33.79c-.89,.79-2.17,1.49-3.81,2.13Z"/>
      <path class="cls-3" d="M297.54,91.92c-.35,.75-.62,1.35-.82,1.8-.2,.45-.33,.79-.39,1.03-.07,.24-.1,.44-.1,.59,0,.26,.08,.49,.23,.67,.15,.19,.44,.28,.85,.28l6.45-14.13c1.5-.98,3.47-1.47,5.89-1.47,1.31,0,2.57,.18,3.78,.54,1.21,.36,2.28,.91,3.22,1.64,.94,.73,1.68,1.65,2.24,2.75,.56,1.1,.83,2.38,.83,3.84,0,1.22-.22,2.42-.65,3.6-.44,1.18-1.04,2.32-1.82,3.42-.77,1.1-1.69,2.14-2.75,3.11-1.06,.97-2.2,1.85-3.42,2.63-.61-.35-1.17-.61-1.68-.77-.51-.16-1.02-.25-1.52-.25-.39,0-.74,.11-1.03,.33-.29,.22-.44,.58-.44,1.08,.41,.09,.83,.19,1.24,.29,.41,.11,.85,.26,1.29,.46,.45,.2,.93,.47,1.44,.82,.51,.35,1.06,.8,1.65,1.34l8.7,8.02c-.31,3.49-1.34,6.13-3.09,7.92-1.76,1.79-4.26,2.68-7.51,2.68-1.11,0-2.18-.14-3.21-.43-1.03-.28-2-.75-2.93-1.41s-1.79-1.51-2.58-2.57c-.8-1.06-1.5-2.36-2.11-3.91l-3.04-7.59h-.16c-.42,0-.7,.1-.85,.29-.15,.2-.23,.4-.23,.62,0,.35,.3,1.3,.9,2.86,.6,1.56,1.52,3.74,2.76,6.53v2.52c-.44,.39-.97,.77-1.59,1.15-.62,.37-1.33,.7-2.13,.98-.8,.28-1.68,.51-2.65,.69-.97,.17-2.02,.26-3.16,.26-1.22,0-2.4-.13-3.53-.39-1.13-.26-2.13-.66-2.99-1.19-.86-.53-1.55-1.22-2.06-2.04-.51-.83-.77-1.8-.77-2.91v-33.76c1-.92,2.36-1.66,4.06-2.22,1.7-.57,3.6-.85,5.69-.85,1.24,0,2.43,.12,3.55,.36,1.12,.24,2.12,.63,2.98,1.16,.86,.53,1.55,1.23,2.06,2.09,.51,.86,.77,1.92,.77,3.19v1.47c-.57,1.18-1.03,2.14-1.37,2.9Z"/>
    </g>
  </g>
</svg>