<svg id="Layer_1" data-name="Layer 1" xmlns="http://www.w3.org/2000/svg" viewBox="0 0 898.19 898.19"><defs><style>.cls-1{fill:none;stroke:#000;stroke-linecap:round;stroke-miterlimit:10;stroke-width:40px;}</style></defs><path class="cls-1" d="M537.09,357.35v80.32a54.51,54.51,0,0,1-16,38.54L428.54,568.8a54.53,54.53,0,0,1-38.55,16H341.61a54.52,54.52,0,0,1-54.52-54.52v-266a54.51,54.51,0,0,1,54.52-54.51h47.9a54.52,54.52,0,0,1,38.55,16l93.07,93.07A54.52,54.52,0,0,1,537.09,357.35Zm-125,352.42H514.51a54.53,54.53,0,0,0,38.55-16l93.07-93.07a54.51,54.51,0,0,0,16-38.54V357.35a54.52,54.52,0,0,0-16-38.55l-93.07-93.07a54.52,54.52,0,0,0-38.55-16H389.09m-102,500v-180"/><path class="cls-1" d="M421.51,46.11,204.65,125a80.62,80.62,0,0,0-42.26,35.46L47,360.35a80.7,80.7,0,0,0-9.58,54.34L77.5,642a80.62,80.62,0,0,0,27.58,47.78L281.86,838.07a80.66,80.66,0,0,0,51.85,18.87H564.48a80.63,80.63,0,0,0,51.84-18.87L793.1,689.73A80.58,80.58,0,0,0,820.69,642l40.07-227.26a80.64,80.64,0,0,0-9.58-54.34L735.8,160.5A80.64,80.64,0,0,0,693.53,125L476.68,46.11A80.6,80.6,0,0,0,421.51,46.11Z"/></svg>